<svg width="144" height="135" viewBox="0 0 144 135" fill="none" xmlns="http://www.w3.org/2000/svg">
<path d="M91.4648 134.395H34.1797V125.645L41.6992 117.715L7.65625 24.4727L0 16.6797V7.92969L24.5498 4.44727L26.7236 10.8672C23.6105 12.8004 21.0669 15.5757 19.417 18.9141C17.0905 23.6217 16.7286 29.0613 18.4121 34.0352L19.4229 37.0195L17.0068 37.8369L19.8936 46.3623L29.5547 43.0918L34.4609 57.583L42.9854 54.6973L38.0791 40.2061L44.0469 38.1855L48.9521 52.6777L57.4775 49.792L52.5713 35.2998L62.2334 32.0293L59.3477 23.5039L56.9326 24.3223L55.9219 21.3379C54.2381 16.364 50.6471 12.2621 45.9395 9.93555C42.6013 8.28595 38.8951 7.62632 35.248 7.98145L33.6162 3.16211L55.918 0L83.5352 82.3047L98.1641 41.4258L90.5078 8.75L94.1992 0H143.691L91.4648 134.395ZM33.7051 17.457C36.418 16.5389 39.3845 16.736 41.9521 18.0049C44.5199 19.2739 46.479 21.5107 47.3975 24.2236L48.4072 27.208L27.9473 34.1338L26.9375 31.1494C26.0192 28.4364 26.2164 25.4691 27.4854 22.9014C28.7544 20.3338 30.9922 18.3754 33.7051 17.457Z" fill="#03BFAF"/>
<g filter="url(#filter0_f_23_34)">
<path d="M56.925 61.6175L43.7118 75.7231L64.2009 75.0538L50.9877 89.1594" stroke="#F8D213" stroke-width="6" stroke-linecap="round" stroke-linejoin="round"/>
</g>
<path d="M56.925 61.6175L43.7118 75.7231L64.2009 75.0538L50.9877 89.1594" stroke="#F8D213" stroke-width="6" stroke-linecap="round" stroke-linejoin="round"/>
<defs>
<filter id="filter0_f_23_34" x="29.8119" y="47.7174" width="48.2893" height="55.342" filterUnits="userSpaceOnUse" color-interpolation-filters="sRGB">
<feFlood flood-opacity="0" result="BackgroundImageFix"/>
<feBlend mode="normal" in="SourceGraphic" in2="BackgroundImageFix" result="shape"/>
<feGaussianBlur stdDeviation="5.45" result="effect1_foregroundBlur_23_34"/>
</filter>
</defs>
</svg>
